# xmcd
#
# Track frame offsets:
#	182
#	8345
#	23355
#	38740
#	52167
#	68440
#	84870
#	100775
#	117932
#	132702
#	145462
#	160507
#	170965
#	187702
#	202842
#	215437
#
# Disc length: 3083 seconds
#
# Revision: 7
# Processed by: cddbd v1.5.2PL0 Copyright (c) Steve Scherf et al.
# Submitted via: EZCDAudioConverter 1.3.4.1
#
DISCID=c70c0910
DTITLE=Various Artist - Modern A Cappella
DYEAR=1992
DGENRE=
TTITLE0=En Vogue - National Anthem
TTITLE1=Bobby McFerrin - I Feel Good
TTITLE2=Flying Pickets - Only You
TTITLE3=Rockapella - Zombie Jamboree
TTITLE4=Mint Juleps - Higher And Higher
TTITLE5=The Housemartins - Caravan Of Love
TTITLE6=Take 6 - Spread Love
TTITLE7=Ladysmith Black Mambazo - Unomathemba
TTITLE8=Longhouse - Heaven
TTITLE9=The Nylons - Silhouettes
TTITLE10=The Bobs - My Husband Was A Weatherman
TTITLE11=The Persuasions - Papa-Oom-Mow-Mow
TTITLE12=Todd Rundgren - Mighty Love
TTITLE13=Yes - Leave It
TTITLE14=The Bangles - Walk Like An Egyptian
TTITLE15=The Roches - The Hallelujah Chorus
EXTD=
EXTT0=
EXTT1=
EXTT2=
EXTT3=
EXTT4=
EXTT5=
EXTT6=
EXTT7=
EXTT8=
EXTT9=
EXTT10=
EXTT11=
EXTT12=
EXTT13=
EXTT14=
EXTT15=
PLAYORDER=
